<!DOCTYPE svg PUBLIC "-//W3C//DTD SVG 1.1//EN" "http://www.w3.org/Graphics/SVG/1.1/DTD/svg11.dtd">
<!-- Uploaded to: SVG Repo, www.svgrepo.com, Transformed by: SVG Repo Mixer Tools -->
<svg fill="#000000" height="800px" width="800px" version="1.1" id="Capa_1" xmlns="http://www.w3.org/2000/svg" xmlns:xlink="http://www.w3.org/1999/xlink" viewBox="-171.12 -171.12 781.01 781.01" xml:space="preserve">
<g id="SVGRepo_bgCarrier" stroke-width="0">
<rect x="-171.12" y="-171.12" width="781.01" height="781.01" rx="390.505" fill="#FEBB1B" strokewidth="0"/>
</g>
<g id="SVGRepo_tracerCarrier" stroke-linecap="round" stroke-linejoin="round"/>
<g id="SVGRepo_iconCarrier"> <path d="M135.646,150.005c10.719,6.367,22.735,9.551,34.752,9.551c12.018,0,24.036-3.185,34.754-9.552 c25.497-15.148,39.324-45.114,37.937-82.214c-1.679-44.887-38.677-66.603-72.341-67.784c-0.234-0.008-0.467-0.008-0.701,0 C136.382,1.188,99.384,22.903,97.705,67.79C96.318,104.891,110.148,134.856,135.646,150.005z M170.397,19.79 c25.114,1.012,50.86,16.348,52.649,47.348h-7.381c-11.385-13-27.598-20-45.233-20c-0.001,0-0.002,0-0.003,0 c-17.672,0-33.909,7-45.3,20h-7.382C119.536,36.138,145.282,20.802,170.397,19.79z M129.925,87.138c3.188,0,6.184-1.411,8.067-3.982 c7.617-10.399,19.441-16.31,32.438-16.309c12.956,0.001,24.755,5.884,32.37,16.281c1.883,2.572,4.88,4.01,8.067,4.01h11.303 c-2.984,21-12.474,36.794-27.235,45.563c-15.136,8.992-33.939,8.938-49.075-0.054c-14.762-8.77-24.252-24.509-27.237-45.509H129.925 z M380.67,326.878c0,61.7-50.196,111.897-111.896,111.897c-5.522,0-10-4.478-10-10s4.478-10,10-10 c50.672,0,91.896-41.225,91.896-91.897c0-5.522,4.478-10,10-10S380.67,321.355,380.67,326.878z M339.234,324.878 c0-4.585-0.429-9.073-1.246-13.424c-0.028-0.172-0.062-0.343-0.099-0.515c-6.515-33.312-35.925-58.523-71.114-58.523 c-39.958,0-72.467,32.506-72.467,72.462c0,39.954,32.509,72.46,72.467,72.46C306.729,397.338,339.234,364.832,339.234,324.878z M318.802,327.059c-1.009,24.534-18.414,44.776-42.414,49.323v-41.769C291.388,333.821,305.631,331.262,318.802,327.059z M266.775,272.416c22.655,0,42.002,14.438,49.326,34.595c-14.874,5.163-31.744,7.867-49.326,7.867 c-17.581,0-34.455-2.705-49.333-7.869C224.767,286.853,244.116,272.416,266.775,272.416z M256.388,376.382 c-23-4.547-41.416-24.789-42.422-49.326c13.173,4.204,27.422,6.766,42.422,7.558V376.382z M101.505,248.654L80.128,364.138h84.43 c5.522,0,10,4.477,10,10c0,5.522-4.477,10-10,10H68.106c-2.971,0-5.788-1.393-7.688-3.677c-1.899-2.284-2.686-5.365-2.145-8.287 L81.839,244.94c5.605-30.255,27.82-52.549,60.95-61.167c17.559-4.568,36.928-4.628,54.538-0.174 c19.041,4.817,34.973,14.441,46.073,27.832c3.524,4.252,2.935,10.556-1.317,14.08c-4.253,3.527-10.556,2.935-14.08-1.316 c-16.834-20.305-49.804-28.968-80.179-21.066c-9.588,2.494-17.967,6.422-24.9,11.552l51.579,51.586 c3.905,3.905,3.905,10.236-0.001,14.142c-3.904,3.906-10.237,3.905-14.142-0.001l-51.198-51.204 C105.415,234.994,102.818,241.57,101.505,248.654z"/> </g>
</svg>