<!DOCTYPE svg PUBLIC "-//W3C//DTD SVG 1.1//EN" "http://www.w3.org/Graphics/SVG/1.1/DTD/svg11.dtd">
<!-- Uploaded to: SVG Repo, www.svgrepo.com, Transformed by: SVG Repo Mixer Tools -->
<svg fill="#000000" width="800px" height="800px" viewBox="0 0 24.00 24.00" id="right-arrow" data-name="Flat Color" xmlns="http://www.w3.org/2000/svg" class="icon flat-color">
<g id="SVGRepo_bgCarrier" stroke-width="0"/>
<g id="SVGRepo_tracerCarrier" stroke-linecap="round" stroke-linejoin="round" stroke="#000" stroke-width="1.584">
<path id="primary" d="M21.71,11.29l-3-3a1,1,0,0,0-1.42,1.42L18.59,11H3a1,1,0,0,0,0,2H18.59l-1.3,1.29a1,1,0,0,0,0,1.42,1,1,0,0,0,1.42,0l3-3A1,1,0,0,0,21.71,11.29Z" style="fill: #FEBB1B;"/>
</g>
<g id="SVGRepo_iconCarrier">
<path id="primary" d="M21.71,11.29l-3-3a1,1,0,0,0-1.42,1.42L18.59,11H3a1,1,0,0,0,0,2H18.59l-1.3,1.29a1,1,0,0,0,0,1.42,1,1,0,0,0,1.42,0l3-3A1,1,0,0,0,21.71,11.29Z" style="fill: #FEBB1B;"/>
</g>
</svg>