<?xml version="1.0" encoding="iso-8859-1"?>
<!-- Uploaded to: SVG Repo, www.svgrepo.com, Generator: SVG Repo Mixer Tools -->
<!DOCTYPE svg PUBLIC "-//W3C//DTD SVG 1.1//EN" "http://www.w3.org/Graphics/SVG/1.1/DTD/svg11.dtd">
<svg fill="#000000" version="1.1" id="Capa_1" xmlns="http://www.w3.org/2000/svg" xmlns:xlink="http://www.w3.org/1999/xlink" 
	 width="800px" height="800px" viewBox="0 0 478.496 478.497"
	 xml:space="preserve">
<g>
	<g id="icons_26_">
		<g>
			<path d="M365.903,117.847c-19.001,16.5-22.547,45.396-20.025,69.667c1.357,13.031,21.899,13.163,20.525,0
				c-0.938-9.06-0.72-26.08,2.655-37.89c0.446-1.562,1.513-1.837,1.513,0.188c0,31.506,0.008,178.792,0.008,178.792
				c0,1.645,0.326,3.211,0.903,4.649l-74.216-0.001c0.346-0.844,0.46-1.82,0.46-1.82s3.995-38.164-11.512-56.939
				c-8.757-10.604-21.355-15.979-37.451-15.979c-16.307,0-29.308,5.381-38.643,15.996c-18.659,21.217-14.476,55.6-14.288,57.053
				c0.075,0.586,0.209,1.146,0.378,1.691h-26.642c-0.633-54.305-1.654-126.505-1.654-156.325c0-2.082,1.157-2.691,2.396-0.325
				c11.51,21.989,8.983,54.936,6.7,67.08c-1.932,10.033,4.636,19.732,14.669,21.664c1.182,0.228,2.357,0.336,3.518,0.336
				c8.691,0,16.442-6.154,18.146-15.006c0.521-2.707,12.387-66.717-19.691-105.559c-15.585-18.871-37.986-28.439-66.583-28.439
				c-28.958,0-52.06,9.572-68.66,28.449c-33.093,37.629-25.686,98.508-25.354,101.081c1.304,10.116,10.544,17.249,20.665,15.968
				c10.119-1.279,17.292-10.529,16.037-20.651c-0.049-0.395-3.937-33.467,7.971-58.812c0.538-1.146,1.946-1.616,1.946,0.216
				s-0.997,90.619-1.695,150.323H8.818c-4.87,0-8.818,3.948-8.818,8.817s3.948,8.818,8.818,8.818h68.961
				c-0.335,30.271-0.579,57.49-0.579,74.822c0,29.485,39.785,25.874,39.785,0c0-20.835,0.289-49.487,0.593-74.822h12.857
				c0.067,25.466,0.132,54.237,0.132,74.822c0,26.235,39.783,27.68,39.783,0c0-17.333-0.244-44.553-0.58-74.822h52.25
				c-0.388,31.183-0.823,66.272-0.823,83.747c0,16.823,22.699,14.764,22.699,0c0-25.051,0.733-69.917,0.733-75.118
				c0-5.203,6.851-4.069,6.851-0.154c0,3.914,0.166,50.222,0.166,75.272c0,14.969,22.697,15.793,22.697,0
				c0-17.475-0.436-52.564-0.822-83.747h196.156c4.87,0,8.818-3.949,8.818-8.818s-3.948-8.817-8.818-8.817h-42.474
				c0.577-1.438,0.903-3.005,0.903-4.649c0,0,0.01-173.945,0.01-179.958c0-6.013,0.887-5.892,2.394-8.472
				c7.999-13.697,33.479-57.265,36.455-61.632c3.537-5.188,5.297-13.931,0.422-18.807c-4.874-4.875-16.469-3.298-19.731,4.291
				c0,0-24.178,42.387-26.358,45.829c-2.182,3.442-1.486,4.081-5.486,2.456C412.708,111.05,384.904,101.347,365.903,117.847z
				 M117.797,333.253c0.256-19.979,0.473-35.459,0.473-39.204c0-9.117,12.006-7.131,12.006-0.271c0,2.871,0.052,18.757,0.111,39.476
				H117.797z M222.238,333.253l-6.252,0.052c0,0-0.129-2.787-0.313-4.275c-0.029-0.234-1.522-25.139,5.458-35.473
				c0.637-1.055,1.48-1.181,1.48,1.096C222.611,296.93,222.449,315.873,222.238,333.253z M273.305,333.253
				c-0.211-17.381-0.371-31.821-0.373-38.601c0-1.723,0.973-1.973,1.815-0.869c5.521,12.561,4.157,29.902,2.914,36.506
				c-0.192,1.003-0.509,2.964-0.509,2.964H273.305z M394.639,333.253c0.575-1.438,0.901-3.004,0.901-4.649c0,0,0-83.973,0-88.116
				c0-4.146,7.607-5.251,7.607,0c0,5.249,0,88.116,0,88.116c0,1.646,0.325,3.211,0.9,4.649H394.639z"/>
			<circle cx="398.052" cy="73.69" r="29.482"/>
			<path d="M123.775,108.838c21.156-0.075,38.287-17.248,38.287-38.413c0-21.184-17.131-38.348-38.287-38.423
				c-21.156,0.075-38.286,17.239-38.286,38.423C85.489,91.59,102.619,108.764,123.775,108.838z"/>
			<path d="M248.771,253.844c12.069-0.041,21.846-9.84,21.846-21.916c0-12.087-9.775-21.88-21.846-21.922
				c-12.071,0.042-21.844,9.835-21.844,21.922C226.928,244.004,236.7,253.802,248.771,253.844z"/>
		</g>
	</g>
</g>
</svg>